<svg xmlns="http://www.w3.org/2000/svg" viewBox="0 0 200 200">
  <defs>
    <radialGradient id="g" cx="0.35" cy="0.3" r="0.9">
      <stop offset="0%" stop-color="#FFF385"/>
      <stop offset="60%" stop-color="#FDC72E"/>
      <stop offset="100%" stop-color="#E39B00"/>
    </radialGradient>
    <filter id="s" x="-10%" y="-10%" width="120%" height="120%">
      <feDropShadow dx="0" dy="4" stdDeviation="3" flood-opacity="0.3"/>
    </filter>
  </defs>
  <g filter="url(#s)">
    <g stroke="#E39B00" stroke-width="3" fill="url(#g)">
      <polygon points="100,8 108,42 92,42"/>
      <polygon points="100,192 108,158 92,158"/>
      <polygon points="8,100 42,108 42,92"/>
      <polygon points="192,100 158,108 158,92"/>
      <polygon points="35,35 60,52 52,60"/>
      <polygon points="165,35 148,60 140,52"/>
      <polygon points="35,165 52,140 60,148"/>
      <polygon points="165,165 140,148 148,140"/>
    </g>
    <circle cx="100" cy="100" r="55" fill="url(#g)" stroke="#B37A00" stroke-width="3"/>
    <ellipse cx="82" cy="92" rx="5" ry="7" fill="#2A1A00"/>
    <ellipse cx="118" cy="92" rx="5" ry="7" fill="#2A1A00"/>
    <path d="M78 115 Q100 132 122 115" stroke="#2A1A00" stroke-width="4" fill="none" stroke-linecap="round"/>
    <ellipse cx="72" cy="115" rx="6" ry="4" fill="#FF9AA2" opacity="0.6"/>
    <ellipse cx="128" cy="115" rx="6" ry="4" fill="#FF9AA2" opacity="0.6"/>
  </g>
</svg>
